<?xml version="1.0" encoding="iso-8859-1"?>
<!-- Generator: Adobe Illustrator 19.0.0, SVG Export Plug-In . SVG Version: 6.00 Build 0)  -->
<svg version="1.1" id="Capa_1" xmlns="http://www.w3.org/2000/svg" xmlns:xlink="http://www.w3.org/1999/xlink" x="0px" y="0px"
	 viewBox="0 0 512 512" style="enable-background:new 0 0 512 512;" xml:space="preserve">
<path style="fill:#686C83;" d="M428,501.946h74V362.858c0-32.083-19.167-61.064-48.692-73.619l-61.51-26.158H120.202l-61.51,26.158
	C29.167,301.795,10,330.775,10,362.858v139.088h74"/>
<path style="fill:#898998;" d="M412.488,169.946v8.518c0,54.015-23.79,104.877-64.335,139.482H163.847
	c-40.545-34.606-64.335-85.467-64.335-139.482v-8.518l17.242-7.491c88.901-38.624,189.85-38.592,278.726,0.089L412.488,169.946z"/>
<path style="fill:#686C83;" d="M412.488,169.946L308.924,36.029c-26.784-34.634-79.064-34.634-105.848,0L99.512,169.946l0,0
	C197.794,119.728,314.206,119.728,412.488,169.946L412.488,169.946z"/>
<path style="fill:#FFCDAC;" d="M270.956,241.144l-14.893-14.893l-14.893,14.893h-71.489l0,0
	c7.479,31.205,26.064,58.449,52.045,76.802h68.386c25.715-18.104,44.221-44.909,51.914-75.669l0.283-1.133L270.956,241.144
	L270.956,241.144z"/>
<path style="fill:#72D8FF;" d="M428.137,501.946h-344v-144c0-22.091,17.909-40,40-40h264c22.091,0,40,17.909,40,40V501.946z"/>
<polygon style="fill:#C9F3FF;" points="256.297,218.28 271.562,240.384 347.794,240.384 347.794,178.28 256.137,178.28 
	255.99,178.28 164.333,178.28 164.333,240.384 241.183,240.384 255.83,218.28 "/>
<path style="fill:#FF5D5D;" d="M256.137,362.613L256.137,362.613c-24.004,0-43.463,19.459-43.463,43.463v15.034
	c0,8.796,7.131,15.927,15.927,15.927h8.333v6.444c0,4.932,3.998,8.931,8.931,8.931h21.196c4.932,0,8.931-3.998,8.931-8.931v-6.444
	h7.682c8.796,0,15.927-7.131,15.927-15.927v-15.034C299.6,382.072,280.141,362.613,256.137,362.613z"/>
<path d="M380.32,419.899c2.63,0,5.21-1.069,7.07-2.93c1.86-1.86,2.93-4.439,2.93-7.07c0-2.63-1.07-5.21-2.93-7.069
	c-1.86-1.86-4.44-2.931-7.07-2.931s-5.21,1.07-7.07,2.931c-1.86,1.859-2.93,4.439-2.93,7.069c0,2.631,1.07,5.21,2.93,7.07
	C375.11,418.83,377.69,419.899,380.32,419.899z"/>
<path d="M349.05,97.91c2.63,0,5.21-1.061,7.07-2.931c1.86-1.859,2.93-4.43,2.93-7.069c0-2.63-1.07-5.21-2.93-7.07
	s-4.44-2.93-7.07-2.93s-5.21,1.069-7.07,2.93c-1.86,1.86-2.93,4.44-2.93,7.07c0,2.64,1.07,5.21,2.93,7.069
	C343.84,96.85,346.42,97.91,349.05,97.91z"/>
<path d="M457.222,280.037l-51.834-22.043c11.142-24.695,17.1-51.741,17.1-79.53v-8.518c-0.002,0-0.004,0-0.006-0.001
	c0-2.155-0.689-4.313-2.084-6.116l-38.438-49.705c-3.379-4.37-9.659-5.172-14.028-1.793c-4.369,3.378-5.171,9.659-1.793,14.027
	l14.361,18.57c-39.707-14.885-82.092-22.646-124.5-22.646s-84.792,7.762-124.499,22.646l79.486-102.782
	c10.857-14.04,27.264-22.093,45.013-22.093s34.156,8.053,45.013,22.093l11.934,15.432c3.379,4.371,9.661,5.172,14.028,1.793
	c4.369-3.378,5.171-9.659,1.793-14.027l-11.934-15.432C302.161,10.937,279.987,0.054,256,0.054s-46.161,10.883-60.834,29.858
	L91.602,163.829c-1.395,1.804-2.084,3.963-2.084,6.118c-0.002,0-0.004-0.001-0.006-0.001v8.518c0,27.789,5.958,54.835,17.1,79.53
	l-51.834,22.043C21.502,294.188,0,326.697,0,362.858v139.088c0,5.522,4.477,10,10,10h492c5.523,0,10-4.478,10-10V362.858
	C512,326.697,490.498,294.188,457.222,280.037z M402.488,176.137v2.327c0,28.11-6.796,55.374-19.403,79.716
	c-0.064,0.115-0.121,0.236-0.181,0.354c-9.621,18.473-22.6,35.246-38.515,49.412h-27.458c15.497-16.286,26.974-36.114,33.336-57.884
	c4.324-1.103,7.526-5.012,7.526-9.679v-62.104c0-5.522-4.477-10-10-10h-183.46c-5.523,0-10,4.478-10,10v62.104
	c0,4.608,3.122,8.478,7.363,9.637c6.336,21.787,17.782,41.618,33.267,57.926H167.61c-15.917-14.167-28.896-30.942-38.517-49.416
	c-0.059-0.116-0.115-0.235-0.178-0.348c-12.608-24.342-19.404-51.607-19.404-79.718v-2.327
	C201.695,131.151,310.305,131.151,402.488,176.137z M182.818,250.384h58.365c3.354,0,6.484-1.681,8.336-4.477l6.711-10.127
	l7.104,10.286c1.867,2.703,4.943,4.317,8.229,4.317h57.606c-7.996,22.921-22.703,43.01-42.291,57.563h-61.905
	C205.409,293.363,190.778,273.291,182.818,250.384z M337.793,230.384h-60.984l-12.284-17.787c-1.867-2.703-4.943-4.317-8.229-4.317
	h-0.467c-3.354,0-6.484,1.681-8.336,4.477l-11.681,17.628h-61.479v-42.104h163.46V230.384z M20,362.858
	c0-28.125,16.724-53.41,42.605-64.417l53.195-22.622c6.662,11.427,14.51,22.199,23.469,32.127H124c-27.57,0-50,22.43-50,50v134H20
	V362.858z M94,357.946c0-16.542,13.458-30,30-30h264c16.542,0,30,13.458,30,30v134h-27.68v-45.667c0-5.522-4.477-10-10-10
	s-10,4.478-10,10v45.667H94V357.946z M492,491.946h-54v-134c0-27.57-22.43-50-50-50h-15.27c8.959-9.928,16.807-20.7,23.469-32.127
	l53.195,22.622C475.276,309.448,492,334.733,492,362.858V491.946z"/>
<path d="M256.137,352.613c-29.48,0-53.463,23.983-53.463,53.463v15.033c0,13.848,10.912,25.194,24.588,25.893
	c1.655,8.763,9.367,15.41,18.603,15.41h21.196c9.25,0,16.972-6.669,18.61-15.452c13.366-1.022,23.93-12.227,23.93-25.851v-15.033
	C309.6,376.597,285.617,352.613,256.137,352.613z M289.6,421.109c0,3.268-2.659,5.927-5.927,5.927h-7.683c-5.523,0-10,4.478-10,10
	v5.376h-19.057v-5.376c0-5.522-4.477-10-10-10H228.6c-3.268,0-5.927-2.659-5.927-5.927v-15.033
	c0-18.451,15.012-33.463,33.463-33.463s33.463,15.012,33.463,33.463L289.6,421.109L289.6,421.109z"/>
<path d="M243.47,395.609c-2.63,0-5.21,1.07-7.07,2.931c-1.86,1.859-2.93,4.439-2.93,7.069c0,2.641,1.07,5.21,2.93,7.07
	c1.86,1.87,4.44,2.93,7.07,2.93s5.21-1.06,7.07-2.93c1.86-1.86,2.93-4.43,2.93-7.07c0-2.63-1.07-5.21-2.93-7.069
	C248.68,396.68,246.1,395.609,243.47,395.609z"/>
<path d="M268.8,395.609c-2.63,0-5.21,1.07-7.07,2.931c-1.86,1.859-2.93,4.439-2.93,7.069c0,2.641,1.07,5.21,2.93,7.07
	c1.86,1.87,4.44,2.93,7.07,2.93c2.64,0,5.21-1.06,7.07-2.93c1.87-1.86,2.93-4.43,2.93-7.07c0-2.63-1.06-5.21-2.93-7.069
	C274.01,396.68,271.44,395.609,268.8,395.609z"/>
<g>
</g>
<g>
</g>
<g>
</g>
<g>
</g>
<g>
</g>
<g>
</g>
<g>
</g>
<g>
</g>
<g>
</g>
<g>
</g>
<g>
</g>
<g>
</g>
<g>
</g>
<g>
</g>
<g>
</g>
</svg>
